HIERARCHY
ROOT Hips
{
	OFFSET 0.000000 0.000000 0.000000
	CHANNELS 6 Xposition Yposition Zposition Zrotation Yrotation Xrotation 
	JOINT LHipJoint
	{
		OFFSET 0.000000 0.000000 0.000000
		CHANNELS 3 Zrotation Yrotation Xrotation
		JOINT LeftUpLeg
		{
			OFFSET 1.363060 -1.794630 0.839290
			CHANNELS 3 Zrotation Yrotation Xrotation
			JOINT LeftLeg
			{
				OFFSET 2.448110 -6.726130 0.000000
				CHANNELS 3 Zrotation Yrotation Xrotation
				JOINT LeftFoot
				{
					OFFSET 2.562200 -7.039590 0.000000
					CHANNELS 3 Zrotation Yrotation Xrotation
					JOINT LeftToeBase
					{
						OFFSET 0.157640 -0.433110 2.322550
						CHANNELS 3 Zrotation Yrotation Xrotation
						End Site
						{
							OFFSET 0.000000 0.000000 0.000000
						}
					}
				}
			}
		}
	}
	JOINT RHipJoint
	{
		OFFSET 0.000000 0.000000 0.000000
		CHANNELS 3 Zrotation Yrotation Xrotation
		JOINT RightUpLeg
		{
			OFFSET -1.305520 -1.794630 0.839290
			CHANNELS 3 Zrotation Yrotation Xrotation
			JOINT RightLeg
			{
				OFFSET -2.542530 -6.985550 0.000000
				CHANNELS 3 Zrotation Yrotation Xrotation
				JOINT RightFoot
				{
					OFFSET -2.568260 -7.056230 0.000000
					CHANNELS 3 Zrotation Yrotation Xrotation
					JOINT RightToeBase
					{
						OFFSET -0.164730 -0.452590 2.363150
						CHANNELS 3 Zrotation Yrotation Xrotation
						End Site
						{
							OFFSET 0.000000 0.000000 0.000000
						}
					}
				}
			}
		}
	}
	JOINT LowerBack
	{
		OFFSET 0.000000 0.000000 0.000000
		CHANNELS 3 Zrotation Yrotation Xrotation
		JOINT Spine
		{
			OFFSET 0.028270 2.035590 -0.193380
			CHANNELS 3 Zrotation Yrotation Xrotation
			JOINT Spine1
			{
				OFFSET 0.056720 2.048850 -0.042750
				CHANNELS 3 Zrotation Yrotation Xrotation
				JOINT Neck
				{
					OFFSET 0.000000 0.000000 0.000000
					CHANNELS 3 Zrotation Yrotation Xrotation
					JOINT Neck1
					{
						OFFSET -0.054170 1.746240 0.172020
						CHANNELS 3 Zrotation Yrotation Xrotation
						JOINT Head
						{
							OFFSET 0.104070 1.761360 -0.123970
							CHANNELS 3 Zrotation Yrotation Xrotation
							End Site
							{
								OFFSET 0.000000 0.000000 0.000000
							}
						}
					}
				}
				JOINT LeftShoulder
				{
					OFFSET 0.000000 0.000000 0.000000
					CHANNELS 3 Zrotation Yrotation Xrotation
					JOINT LeftArm
					{
						OFFSET 3.362410 1.200890 -0.311210
						CHANNELS 3 Zrotation Yrotation Xrotation
						JOINT LeftForeArm
						{
							OFFSET 4.983000 -0.000000 -0.000000
							CHANNELS 3 Zrotation Yrotation Xrotation
							JOINT LeftHand
							{
								OFFSET 3.483560 -0.000000 -0.000000
								CHANNELS 3 Zrotation Yrotation Xrotation
								JOINT LeftFingerBase
								{
									OFFSET 0.000000 0.000000 0.000000
									CHANNELS 3 Zrotation Yrotation Xrotation
									JOINT LeftHandIndex1
									{
										OFFSET 0.715260 -0.000000 -0.000000
										CHANNELS 3 Zrotation Yrotation Xrotation
										End Site
										{
											OFFSET 0.000000 0.000000 0.000000
										}
									}
								}
								JOINT LThumb
								{
									OFFSET 0.000000 0.000000 0.000000
									CHANNELS 3 Zrotation Yrotation Xrotation
									End Site
									{
										OFFSET 0.000000 0.000000 0.000000
									}
								}
							}
						}
					}
				}
				JOINT RightShoulder
				{
					OFFSET 0.000000 0.000000 0.000000
					CHANNELS 3 Zrotation Yrotation Xrotation
					JOINT RightArm
					{
						OFFSET -3.136600 1.374050 -0.404650
						CHANNELS 3 Zrotation Yrotation Xrotation
						JOINT RightForeArm
						{
							OFFSET -5.241900 -0.000000 -0.000000
							CHANNELS 3 Zrotation Yrotation Xrotation
							JOINT RightHand
							{
								OFFSET -3.444170 -0.000000 -0.000000
								CHANNELS 3 Zrotation Yrotation Xrotation
								JOINT RightFingerBase
								{
									OFFSET 0.000000 0.000000 0.000000
									CHANNELS 3 Zrotation Yrotation Xrotation
									JOINT RightHandIndex1
									{
										OFFSET -0.622530 -0.000000 -0.000000
										CHANNELS 3 Zrotation Yrotation Xrotation
										End Site
										{
											OFFSET 0.000000 0.000000 0.000000
										}
									}
								}
								JOINT RThumb
								{
									OFFSET 0.000000 0.000000 0.000000
									CHANNELS 3 Zrotation Yrotation Xrotation
									End Site
									{
										OFFSET 0.000000 0.000000 0.000000
									}
								}
							}
						}
					}
				}
			}
		}
	}
}
MOTION
Frames: 4
Frame Time: 0.008333
3.546131 17.547837 0.517953 165.161418 -84.262927 -147.208383 -9.707207 -0.473309 -0.831638 -13.306797 7.591212 -40.339326 -2.260773 0.500866 20.452689 2.828297 15.767359 -2.682555 2.093700 0.000000 -33.641100 8.905594 -1.172150 0.087446 7.625578 1.089921 -9.020740 2.589496 0.901009 3.370310 -0.281555 -0.740032 -2.619608 -0.402000 0.000000 -43.965000 0.543423 0.757919 1.881331 -0.715544 0.722207 -2.524683 -5.863377 0.646401 1.000649 7.308007 1.287957 -2.975514 -3.416693 -0.298875 1.096530 0.000000 0.000000 0.000000 -2.841903 6.920920 2.659869 -46.510451 11.553026 28.850850 -3.974160 -39.791820 -0.046519 -16.453122 1.955604 -0.302736 -0.106501 -0.150536 0.000000 0.000000 0.000000 0.000000 0.000000 0.000000 0.000000 12.788400 4.628949 1.753997 50.148973 29.569272 22.590208 2.561614 45.808386 0.023967 9.918679 10.380662 0.924227 -0.045453 -0.184995 -0.000000 0.000000 0.000000 0.000000 0.000000 0.000000 0.000000 
3.357176 17.514514 0.506333 167.091390 -84.060394 -149.122869 -9.623356 -0.614900 -0.576135 -12.917040 7.128591 -40.526334 -2.381427 0.190905 17.264915 2.671597 14.890788 -2.288462 2.125600 -0.000000 -34.001900 8.908429 -1.191411 -0.014564 7.723119 1.064301 -7.842396 2.602138 0.965095 2.732834 -0.286692 -0.711231 -2.926035 -0.380700 0.000001 -44.200500 0.359900 0.906601 1.777135 -0.723127 0.882454 -2.528736 -5.691904 0.809100 1.050554 6.964398 1.177388 -3.063632 -3.273507 -0.289043 1.077722 0.000000 0.000000 0.000000 -3.059339 7.440992 2.598876 -46.595223 12.314947 28.656478 -4.017514 -39.295599 -0.047881 -16.495864 2.073333 -0.321077 -0.106921 -0.153871 0.000000 0.000000 0.000000 0.000000 0.000000 0.000000 0.000000 11.850096 4.696039 1.733317 49.369236 30.676254 23.485645 2.413899 47.530736 0.023990 9.867197 10.364652 0.919499 -0.053035 -0.194424 -0.000000 0.000000 0.000000 0.000000 0.000000 0.000000 0.000000 
3.167455 17.475153 0.496480 169.137356 -83.861956 -151.156725 -9.553270 -0.766133 -0.305406 -12.404331 6.634596 -40.675410 -2.488930 -0.125778 14.091174 2.485487 13.884669 -1.915391 2.113700 0.000000 -34.730600 8.901566 -1.206679 -0.134975 7.855640 1.002157 -6.672817 2.619875 1.025823 2.164991 -0.291613 -0.664775 -3.282227 -0.355200 0.000000 -44.469399 0.211861 1.051069 1.680491 -0.724071 1.036790 -2.531875 -5.520648 0.965752 1.094444 6.610117 1.037935 -3.153685 -3.127976 -0.278957 1.058793 0.000000 0.000000 0.000000 -3.303979 7.913478 2.535893 -46.647546 13.165452 28.358060 -4.056285 -38.911945 -0.049249 -16.536982 2.208921 -0.341917 -0.107028 -0.157145 0.000000 0.000000 0.000000 0.000000 0.000000 0.000000 0.000000 10.893558 4.723418 1.716820 48.533152 31.799959 24.255357 2.269992 49.224058 0.024056 9.844533 10.385225 0.920769 -0.060985 -0.204282 -0.000000 0.000000 0.000000 0.000000 0.000000 0.000000 0.000000 
2.976931 17.429937 0.488831 171.545838 -83.662810 -153.566119 -9.495288 -0.926294 -0.043827 -11.796504 6.221213 -40.854568 -2.590284 -0.431432 11.052827 2.260721 12.677001 -1.599772 2.035900 0.000000 -35.556900 8.879674 -1.220144 -0.261896 8.048880 0.947736 -5.480710 2.642951 1.088653 1.629347 -0.301056 -0.636038 -3.675588 -0.330200 -0.000000 -44.713200 0.120385 1.195688 1.601409 -0.713645 1.188740 -2.528551 -5.346075 1.120333 1.144929 6.243762 0.898666 -3.255860 -2.978003 -0.268255 1.036496 0.000000 0.000000 0.000000 -3.537730 8.456681 2.476159 -46.717306 13.914129 28.041043 -4.095955 -38.511441 -0.050272 -16.556486 2.323660 -0.359350 -0.107206 -0.159572 0.000000 0.000000 0.000000 0.000000 0.000000 0.000000 0.000000 9.900548 4.743845 1.686323 47.650621 32.896189 24.859734 2.121968 50.898348 0.024034 9.811258 10.405744 0.921034 -0.069355 -0.214399 -0.000000 0.000000 0.000000 0.000000 0.000000 0.000000 0.000000 
